<svg id="Capa_1" enable-background="new 0 0 512 512" height="512" viewBox="0 0 512 512" width="512" xmlns="http://www.w3.org/2000/svg" xmlns:xlink="http://www.w3.org/1999/xlink"><linearGradient id="SVGID_1_" gradientUnits="userSpaceOnUse" x1="256" x2="256" y1="512" y2="0"><stop offset="0" stop-color="#addcff"/><stop offset=".5028" stop-color="#eaf6ff"/><stop offset="1" stop-color="#eaf6ff"/></linearGradient><linearGradient id="SVGID_2_" gradientUnits="userSpaceOnUse" x1="256" x2="256" y1="193.824" y2="318.177"><stop offset="0" stop-color="#5558ff"/><stop offset="1" stop-color="#00c0ff"/></linearGradient><g><circle cx="256" cy="256" fill="url(#SVGID_1_)" r="256"/></g><g><g><path d="m398.118 229.353h-15.119c-10.02-20.93-31.231-35.529-55.94-35.529-22.828 0-42.609 12.508-53.422 30.897-4.964-3.919-11.021-6.35-17.637-6.35s-12.673 2.431-17.637 6.35c-10.813-18.389-30.594-30.897-53.422-30.897-24.708 0-45.92 14.6-55.94 35.529h-15.119c-4.91 0-8.882 3.973-8.882 8.882 0 4.91 3.973 8.882 8.882 8.882h9.78c-.424 2.926-.898 5.841-.898 8.882 0 34.28 27.896 62.176 62.177 62.176s62.177-27.895 62.177-62.175c0-4.512-.54-8.889-1.457-13.129.153-.243.389-.401.521-.662 3.747-7.495 15.891-7.495 19.638 0 .127.253.396.353.543.589-.928 4.264-1.48 8.664-1.48 13.203 0 34.28 27.896 62.176 62.177 62.176s62.175-27.897 62.175-62.177c0-3.041-.474-5.956-.898-8.882h9.78c4.91 0 8.882-3.973 8.882-8.882.001-4.91-3.972-8.883-8.881-8.883z" fill="url(#SVGID_2_)"/></g></g></svg>